<?xml version="1.0" standalone="no"?><!DOCTYPE svg PUBLIC "-//W3C//DTD SVG 1.1//EN" "http://www.w3.org/Graphics/SVG/1.1/DTD/svg11.dtd"><svg class="icon" width="200px" height="200.00px" viewBox="0 0 1024 1024" version="1.1" xmlns="http://www.w3.org/2000/svg"><path fill="#333333" d="M197.632381 41.178403c37.763833 0 140.877405 98.769335 172.435185 165.174103 7.136961 14.956588 9.464231 27.772088 5.740599 31.123356L330.84531 278.342722c-32.116325 29.23051-49.182971 59.981503-50.765514 91.353101-1.644604 31.55778 12.319015 63.363802 41.363344 94.518189l242.532555 260.002594c30.44069 32.7059 61.657137 48.562365 95.356005 48.562365 31.216447 0 61.688168-13.901559 93.152857-42.573524l44.838734-40.835829c1.17915-1.086059 2.761694-1.489453 4.995872-1.644604 37.794863 0 128.930753 90.949708 155.399569 146.773155 7.447264 15.670284 9.464231 28.423723 5.213085 32.271476l-44.838733 40.773769c-44.869764 40.835829-95.200854 65.256648-149.379698 72.393609a253.548299 253.548299 0 0 1-33.543717 2.203149c-87.319167 0-175.786454-43.28722-249.110971-121.855852L161.358001 512.372984C26.376346 367.647826 21.597685 199.184515 149.101046 83.224413l44.931824-40.835829a5.461327 5.461327 0 0 1 3.009936-1.14812l0.589575-0.062061z m0-41.177162a47.476306 47.476306 0 0 0-32.054264 12.163864L120.801444 52.907844c-143.887341 130.823599-139.977527 326.655604 9.836594 487.299288l324.638637 348.097517c81.392386 87.288137 181.527053 135.198866 279.799903 135.198867 13.063742 0 26.127483-0.837817 39.098135-2.575512 62.929378-8.285081 120.862884-36.21232 172.217973-82.97493l44.838733-40.773769c13.498165-12.225925 25.227606-36.057168 4.344237-80.120145-28.299602-59.485019-128.992813-170.511308-193.163402-170.511309a48.438244 48.438244 0 0 0-33.202384 12.505197l-45.024915 40.990981c-23.055487 20.945429-44.187098 31.650871-64.853255 31.650871-21.535004 0-42.511464-11.605319-64.542952-35.343473l-242.625645-260.002593c-21.224702-22.776215-31.464689-44.46637-30.37863-64.511922 0.992968-20.386884 13.560226-41.580556 37.36044-63.270711l44.869763-40.742739c13.218893-12.008713 24.54494-35.436563 3.816723-78.972025C376.894224 123.687879 263.044181 0.001241 197.663411 0.001241z" /></svg>