<?xml version="1.0" standalone="no"?><!DOCTYPE svg PUBLIC "-//W3C//DTD SVG 1.1//EN" "http://www.w3.org/Graphics/SVG/1.1/DTD/svg11.dtd"><svg class="icon" width="200px" height="168.84px" viewBox="0 0 1213 1024" version="1.1" xmlns="http://www.w3.org/2000/svg"><path fill="#333333" d="M1211.58163 124.09363s-68.645926-57.685333-138.808889-88.064c-76.382815-37.05363-184.32-35.346963-184.32-35.346963s-76.003556-5.688889-153.941334 31.478518a658.773333 658.773333 0 0 0-135.471407 87.684741S519.585185 58.405926 449.308444 26.244741C379.031704-5.95437 277.617778 0.682667 277.617778 0.682667S181.172148 5.688889 119.125333 33.867852C57.002667 62.084741 0 129.21363 0 129.21363V994.797037s87.722667-76.724148 140.060444-98.304 134.181926-20.859259 134.181926-20.859259 98.076444 11.908741 156.520297 35.764148c58.405926 23.893333 168.239407 112.336593 168.239407 112.336593s70.011259-75.472593 126.217482-103.80326c95.269926-49.796741 189.743407-42.590815 189.743407-42.590815s58.026667 2.578963 138.808889 33.223112c73.424593 27.83763 159.250963 85.940148 159.250963 85.940148l-1.517037-872.410074zM569.192296 928.426667s-150.262519-120.187259-294.912-117.456593c-136.305778 2.541037-188.453926 37.432889-223.762963 73.197037 1.251556-42.097778-0.644741-723.512889-0.64474-723.512889s52.337778-95.269926 229.072592-102.930963c150.186667-12.781037 279.74163 94.435556 287.706074 114.915556 3.792593 26.775704 2.541037 755.787852 2.541037 755.787852z m586.827852-28.065186c-35.309037-35.764148-129.972148-89.391407-266.277926-91.932444-144.649481-2.730667-258.503111 121.287111-258.503111 121.287111s-1.289481-729.012148 2.503111-755.825778c12.629333-20.404148 111.085037-122.538667 287.744-114.915555 153.144889 6.750815 236.506074 100.617481 236.506074 100.617481s-1.820444 698.974815-1.972148 740.73126z" /></svg>