<?xml version="1.0" standalone="no"?><!DOCTYPE svg PUBLIC "-//W3C//DTD SVG 1.1//EN" "http://www.w3.org/Graphics/SVG/1.1/DTD/svg11.dtd"><svg class="icon" width="200px" height="156.34px" viewBox="0 0 1310 1024" version="1.1" xmlns="http://www.w3.org/2000/svg"><path fill="#333333" d="M370.4832 464.52736c-82.82112 0-150.15936-66.68288-150.15936-148.6848 0-81.92 67.33824-148.60288 150.15936-148.60288 82.78016 0 150.15936 66.68288 150.15936 148.64384 0 81.92-67.3792 148.64384-150.15936 148.64384z m0-245.67808c-54.0672 0-98.01728 43.54048-98.01728 97.03424 0 53.49376 43.95008 97.03424 98.01728 97.03424 54.02624 0 97.97632-43.54048 97.97632-97.0752 0-53.4528-43.95008-96.99328-97.97632-96.99328z m218.27584 410.29632H536.576c0-90.68544-74.5472-164.4544-166.13376-164.4544-91.62752 0-166.13376 73.728-166.13376 164.4544H152.20736c0-119.1936 97.8944-216.10496 218.27584-216.10496 120.34048 0 218.27584 96.95232 218.27584 216.10496z m637.7472 394.15808H84.1728c-45.6704 0-82.86208-36.864-82.86208-82.08384V82.86208C1.31072 37.60128 38.5024 0.77824 84.1728 0.77824h1142.3744c45.6704 0 82.86208 36.864 82.86208 82.08384v858.35776a82.61632 82.61632 0 0 1-82.90304 82.08384zM84.1728 52.4288a30.59712 30.59712 0 0 0-30.72 30.43328v858.35776c0 16.7936 13.80352 30.43328 30.72 30.43328h1142.3744c16.91648 0 30.72-13.68064 30.72-30.43328V82.86208a30.63808 30.63808 0 0 0-30.72-30.43328H84.13184z m643.60448 206.97088h410.29632v51.6096H727.77728v-51.6096z m0 247.07072h410.29632v51.6096H727.77728v-51.6096zM151.01952 742.89152h987.05408v51.6096H151.01952v-51.6096z" /></svg>