<?xml version="1.0" standalone="no"?><!DOCTYPE svg PUBLIC "-//W3C//DTD SVG 1.1//EN" "http://www.w3.org/Graphics/SVG/1.1/DTD/svg11.dtd"><svg class="icon" width="200px" height="200.00px" viewBox="0 0 1024 1024" version="1.1" xmlns="http://www.w3.org/2000/svg"><path fill="#333333" d="M1000.704728 1023.968001h-139.643636a23.295272 23.295272 0 0 1 0-46.558545h116.348364V861.093091a23.295272 23.295272 0 0 1 46.558545 0v139.643636a23.295272 23.295272 0 0 1-23.263273 23.263273z m0-279.255273a23.295272 23.295272 0 0 1-23.295272-23.295272v-139.611637a23.295272 23.295272 0 0 1 46.558545 0v139.611637a23.295272 23.295272 0 0 1-23.263273 23.295272z m0-279.287273a23.295272 23.295272 0 0 1-23.295272-23.263273V302.550545a23.295272 23.295272 0 0 1 46.558545 0v139.611637a23.295272 23.295272 0 0 1-23.263273 23.263273z m0-279.255273a23.295272 23.295272 0 0 1-23.295272-23.263273V46.558545H861.093091a23.295272 23.295272 0 0 1 0-46.558545h139.643636c12.7996 0 23.263273 10.431674 23.263273 23.263273v139.643636a23.295272 23.295272 0 0 1-23.263273 23.263273zM721.417456 1023.968001h-139.611637a23.295272 23.295272 0 0 1 0-46.558545h139.611637a23.295272 23.295272 0 0 1 0 46.558545z m0-977.409456h-139.611637a23.295272 23.295272 0 0 1 0-46.558545h139.611637a23.295272 23.295272 0 0 1 0 46.558545z m-26.143183 418.86691a46.526546 46.526546 0 1 1 0 93.117091h-139.643636v139.611637a46.558545 46.558545 0 0 1-93.085092 0v-139.611637h-139.611637a46.558545 46.558545 0 0 1 0-93.117091h139.611637v-139.611637a46.526546 46.526546 0 1 1 93.117091 0v139.611637h139.611637z m-253.112091-418.86691H302.550545a23.295272 23.295272 0 0 1 0-46.558545h139.611637a23.295272 23.295272 0 0 1 0 46.558545zM162.906909 1023.968001H23.263273A23.295272 23.295272 0 0 1 0 1000.704728v-139.643636a23.295272 23.295272 0 0 1 46.558545 0v116.348364H162.87491a23.295272 23.295272 0 0 1 0 46.558545z m0-977.409456H46.558545V162.87491A23.295272 23.295272 0 0 1 0 162.87491V23.263273C0 10.431674 10.431674 0 23.263273 0h139.643636a23.295272 23.295272 0 0 1 0 46.558545zM23.263273 279.255273c12.863598 0 23.295272 10.431674 23.295272 23.295272v139.611637a23.295272 23.295272 0 0 1-46.558545 0V302.550545c0-12.863598 10.431674-23.295272 23.263273-23.295272z m0 279.287273c12.863598 0 23.295272 10.399675 23.295272 23.263273v139.611637a23.295272 23.295272 0 0 1-46.558545 0v-139.611637c0-12.863598 10.431674-23.263273 23.263273-23.263273z m279.287272 418.86691h139.611637a23.295272 23.295272 0 0 1 0 46.558545H302.550545a23.295272 23.295272 0 0 1 0-46.558545z" /></svg>