<?xml version="1.0" standalone="no"?><!DOCTYPE svg PUBLIC "-//W3C//DTD SVG 1.1//EN" "http://www.w3.org/Graphics/SVG/1.1/DTD/svg11.dtd"><svg class="icon" width="200px" height="187.55px" viewBox="0 0 1092 1024" version="1.1" xmlns="http://www.w3.org/2000/svg"><path fill="#333333" d="M1090.321067 305.732267c-15.906133-176.64-140.0832-304.810667-295.5264-304.810667-103.5264 0-198.382933 56.081067-251.733334 145.988267C490.1888 55.876267 399.291733 0.9216 297.3696 0.9216 141.9264 0.9216 17.749333 129.092267 1.8432 305.664c-1.262933 7.850667-6.485333 48.878933 9.284267 115.848533 22.596267 96.597333 74.922667 184.388267 151.210666 253.952l380.450134 347.477334 387.037866-347.477334c76.288-69.563733 128.580267-157.354667 151.210667-253.952 15.7696-66.9696 10.581333-108.032 9.284267-115.780266z m-50.176 106.052266c-20.650667 88.2688-68.608 168.618667-138.4448 232.2432L543.061333 966.109867 190.5664 644.096c-69.973333-63.7952-117.896533-144.110933-138.581333-232.3456-14.848-63.351467-8.704-99.157333-8.704-99.328l0.3072-2.1504c13.653333-154.794667 120.354133-267.093333 253.781333-267.093333 98.440533 0 185.105067 60.893867 226.269867 158.856533l19.319466 46.216533 19.319467-46.216533c40.482133-96.4608 131.754667-158.8224 232.516267-158.8224 133.393067 0 240.128 112.298667 254.0544 269.038933 0.068267 0.341333 6.212267 36.181333-8.704 99.498667z"  /><path fill="#333333" d="M336.0768 129.467733c-115.848533 0-210.056533 94.8224-210.056533 211.387734 0 11.6736 9.4208 21.162667 21.026133 21.162666 11.605333 0 20.992-9.489067 20.992-21.162666 0-93.2864 75.3664-169.130667 168.0384-169.130667 11.605333 0 20.992-9.454933 20.992-21.128533a21.060267 21.060267 0 0 0-20.992-21.162667z"  /></svg>