<?xml version="1.0" standalone="no"?><!DOCTYPE svg PUBLIC "-//W3C//DTD SVG 1.1//EN" "http://www.w3.org/Graphics/SVG/1.1/DTD/svg11.dtd"><svg class="icon" width="200px" height="200.00px" viewBox="0 0 1024 1024" version="1.1" xmlns="http://www.w3.org/2000/svg"><path fill="#333333" d="M257.613576 557.676606a17.811394 17.811394 0 0 1-5.306182-0.806788l-29.416727-8.998788a18.059636 18.059636 0 0 1-4.468364-2.016969C78.072242 456.921212 10.053818 372.70497 16.259879 295.501576 23.024485 210.944 115.246545 170.790788 119.156364 169.115152a18.214788 18.214788 0 0 1 7.136969-1.458425h17.873455c9.867636 0 17.997576 7.881697 18.369939 17.842425 5.740606 141.28097 110.312727 342.884848 111.336728 344.901818a18.742303 18.742303 0 0 1-2.048 20.48 18.307879 18.307879 0 0 1-14.211879 6.826666zM127.069091 206.506667c-18.307879 9.557333-70.128485 40.92897-74.162424 92.16-4.499394 58.212848 52.844606 128.341333 166.198303 203.465697-30.471758-65.784242-82.354424-190.526061-92.035879-295.625697z m652.443151 344.622545a18.307879 18.307879 0 0 1-13.498181-5.957818 18.742303 18.742303 0 0 1-3.227152-20.355879c0.930909-2.07903 93.835636-209.423515 91.477333-350.797576a18.525091 18.525091 0 0 1 17.34594-18.897454l17.811394-1.024a18.959515 18.959515 0 0 1 7.23006 1.024c4.002909 1.458424 98.33503 36.150303 109.909334 120.180363 10.581333 76.737939-52.503273 164.770909-187.547152 261.709576a18.618182 18.618182 0 0 1-4.313212 2.296243l-28.858182 10.705454a17.935515 17.935515 0 0 1-6.330182 1.117091zM890.88 192.915394c-3.692606 105.472-48.345212 233.006545-75.031273 300.466424 108.885333-81.578667 162.133333-154.903273 154.282667-212.774788-6.888727-50.889697-60.38497-79.189333-79.251394-87.691636z"  /><path fill="#333333" d="M511.100121 737.900606c-221.059879 0-400.911515-300.807758-400.911515-670.533818 0-13.312 0.279273-26.499879 0.713697-39.594667a27.741091 27.741091 0 0 1 27.61697-26.934303h745.161697c14.894545 0 27.089455 11.915636 27.585939 26.934303 0.434424 13.094788 0.744727 26.282667 0.744727 39.594667 0 369.726061-179.851636 670.533818-400.911515 670.533818zM165.453576 56.630303l-0.062061 10.736485c0 338.97503 155.089455 614.710303 345.708606 614.710303s345.708606-275.735273 345.708606-614.710303c0-3.599515 0-7.13697-0.06206-10.736485H165.453576z"  /><path fill="#333333" d="M579.025455 602.049939a18.649212 18.649212 0 0 1-7.230061-35.684848c122.352485-53.030788 156.082424-206.041212 156.392727-207.561697a18.46303 18.46303 0 0 1 21.845334-14.30497 18.618182 18.618182 0 0 1 14.180848 22.031515c-1.458424 7.043879-37.794909 173.304242-177.958788 233.999516a17.935515 17.935515 0 0 1-7.23006 1.520484z m-67.925334 272.32194c-15.235879 0-27.61697-10.550303-27.616969-23.583031v-145.097696c0-13.032727 12.381091-23.58303 27.616969-23.583031s27.61697 10.550303 27.61697 23.583031v145.097696c0 13.032727-12.381091 23.58303-27.61697 23.583031z"  /><path fill="#333333" d="M747.675152 1023.875879H287.961212a27.772121 27.772121 0 0 1-27.61697-27.927273c0-92.966788 113.105455-165.825939 257.458425-165.825939 144.384 0 257.458424 72.859152 257.458424 165.856969a27.772121 27.772121 0 0 1-27.61697 27.896243zM322.466909 968.083394h390.733576c-23.365818-46.669576-103.39297-82.168242-195.366788-82.168242-91.973818 0-172.00097 35.498667-195.366788 82.168242z"  /></svg>