<?xml version="1.0" standalone="no"?><!DOCTYPE svg PUBLIC "-//W3C//DTD SVG 1.1//EN" "http://www.w3.org/Graphics/SVG/1.1/DTD/svg11.dtd"><svg class="icon" width="200px" height="181.40px" viewBox="0 0 1129 1024" version="1.1" xmlns="http://www.w3.org/2000/svg"><path fill="#333333" d="M971.74069 178.811586H790.951724v-66.736552c0-62.252138-49.716966-111.192276-112.993103-111.192275h-225.986207c-63.276138 0-112.993103 48.940138-112.993104 111.227586v66.701241H158.190345C70.055724 178.811586 0 247.737379 0 334.494897v533.715862c0 86.757517 70.055724 155.68331 158.190345 155.68331h813.550345c88.134621 0 158.190345-68.925793 158.190344-155.68331V334.494897c0-86.757517-72.315586-155.718621-158.190344-155.718621z m-587.564138-66.736552c0-37.782069 29.378207-66.701241 67.795862-66.701241h225.986207c38.417655 0 67.795862 28.919172 67.795862 66.736552v66.701241H384.176552v-66.736552z m-225.986207 111.227587h813.550345c63.276138 0 112.993103 48.904828 112.993103 111.192276v206.812689L564.965517 748.120276 45.197241 541.307586V334.494897c0-62.287448 49.716966-111.227586 112.993104-111.227587z m813.550345 756.100413H158.190345c-63.276138 0-112.993103-48.904828-112.993104-111.192275v-277.963035L564.965517 797.060414l519.768276-206.81269v277.963035c0 60.027586-51.976828 111.227586-112.993103 111.227586z" /></svg>